<?xml version="1.0" encoding="utf-8"?>
<svg xmlns="http://www.w3.org/2000/svg" xmlns:svg="http://www.w3.org/2000/svg" version="1.1" viewBox="0 0 520 533">
	<title>Handwritten letter saying “Hugh Hugh My dear Hugh Lawyers Princes Dealers in Contention Honesty ‘Blood Blood … [illegible] an End to them.”</title>
	<path d="m 332.42876,522.14683 c -0.87607,-1.56545 -2.21212,-1.76452 -6.04332,-0.90045 -2.70523,0.61013 -5.25045,0.77748 -5.65604,0.37189 -0.40559,-0.40559 -3.79421,-0.845 -7.53025,-0.97645 -4.16191,-0.14644 -7.24305,-0.96253 -7.9553,-2.10709 -0.97864,-1.57266 -1.61828,-1.58546 -4.04461,-0.081 -2.72056,1.68694 -2.83353,1.59351 -2.01528,-1.66667 0.9961,-3.96879 1.14533,-3.89465 -4.13455,-2.05408 -2.20835,0.76984 -4.72661,2.96111 -5.59613,4.8695 -1.12064,2.45955 -1.99537,3.05538 -3.00433,2.04642 -1.00895,-1.00895 -0.40805,-2.75454 2.06384,-5.99535 4.35392,-5.70829 4.52293,-8.20251 0.48721,-7.19011 -1.65,0.41391 -7.98013,1.16773 -14.06695,1.67516 -8.52821,0.71095 -10.89865,1.33613 -10.33333,2.7253 0.40349,0.9915 1.09587,2.69766 1.53862,3.79148 1.16697,2.88298 -3.24407,4.14361 -5.74563,1.64204 -2.63095,-2.63095 -0.66551,-9.05497 4.28498,-14.00547 3.8963,-3.8963 6.27871,-2.96211 2.65564,1.04133 -1.33545,1.47566 -2.18177,2.90755 -1.88071,3.18199 1.16698,1.06376 29.88236,-3.18692 30.31592,-4.48761 0.25257,-0.75771 1.00131,-1.04263 1.66385,-0.63315 0.66255,0.40947 0.23003,2.23194 -0.96115,4.04991 -1.19119,1.81798 -1.80376,3.66746 -1.36127,4.10994 1.40887,1.40888 8.77055,-2.41082 9.58362,-4.97258 0.8051,-2.53664 8.00419,-9.2485 9.91987,-9.2485 2.02291,0 2.4275,5.15741 0.60833,7.75463 -0.99922,1.4266 -4.18187,3.54014 -7.07254,4.69675 -5.92527,2.37083 -8.23716,4.88196 -4.49461,4.88196 1.36328,0 3.19075,0.71205 4.06103,1.58234 1.2209,1.2209 2.27165,0.9551 4.6,-1.16363 3.15281,-2.86895 6.351,-2.76641 6.351,0.20363 0,1.80056 6.00707,3.59281 7.39387,2.20601 1.75888,-1.75888 8.60613,-1.16148 8.60613,0.75085 0,1.35539 0.8343,1.66903 2.78922,1.04856 2.22157,-0.70509 2.69368,-0.38418 2.31972,1.57682 -0.58598,3.07279 -5.83141,3.98353 -7.34685,1.2756 z M 316,515.99998 c 0,-0.73333 -0.26459,-1.33333 -0.58798,-1.33333 -0.32338,0 -0.9588,0.6 -1.41202,1.33333 -0.45322,0.73333 -0.18864,1.33333 0.58798,1.33333 0.77661,0 1.41202,-0.6 1.41202,-1.33333 z m -1.66259,-13.01222 c 0.30331,-0.90995 -0.20985,-1.65445 -1.14036,-1.65445 -1.98803,0 -7.86372,5.24664 -7.86372,7.02182 0,1.66331 8.31216,-3.2916 9.00408,-5.36737 z m 30.99592,15.6002 c 0,-1.50995 0.5738,-2.39073 1.2751,-1.9573 0.70131,0.43343 0.93712,1.66884 0.52402,2.74535 -1.05763,2.75615 -1.79912,2.43137 -1.79912,-0.78805 z m -227.60041,-0.48871 c -0.58644,-1.0454 -3.46126,-2.0954 -6.3885,-2.33333 -3.89646,-0.31672 -5.44641,-1.08733 -5.78574,-2.87658 -0.39306,-2.07261 -0.0535,-2.22456 2.23459,-1 3.83453,2.05218 8.1589,1.78672 9.05789,-0.55603 0.94012,-2.44991 5.81551,-2.67346 5.81551,-0.26666 0,0.95333 -0.72,2.45333 -1.6,3.33333 -1.24445,1.24444 -0.94815,1.6 1.33333,1.6 3.39627,0 3.91423,2.00496 0.82428,3.19068 -3.1832,1.22151 -4.3207,0.99543 -5.49136,-1.09141 z m -86.390148,-0.75066 c -0.467118,-0.75582 0.06808,-0.97935 1.254644,-0.52402 2.30989,0.88639 2.732516,1.84208 0.814607,1.84208 -0.690055,0 -1.621217,-0.59313 -2.069251,-1.31806 z m 113.323898,-0.0153 c -1.28929,-2.08611 0.52194,-3.97184 2.92809,-3.04851 1.40969,0.54095 1.85106,0.30921 1.25329,-0.658 -1.49697,-2.42215 3.8908,-4.61637 5.77135,-2.35044 1.08009,1.30144 3.60606,1.73512 8.14,1.39756 3.61566,-0.26919 6.57393,0.0691 6.57393,0.75165 0,0.68259 1.18117,1.24108 2.62482,1.24108 1.78539,0 2.37938,0.63961 1.85735,2 -0.79653,2.07572 -5.8155,2.84426 -5.8155,0.89051 0,-1.32699 -16.83815,-1.16348 -18.17814,0.17652 -1.36098,1.36098 -4.20304,1.14025 -5.15519,-0.40037 z M 64,514.97625 c -1.1,-1.2406 -1.85,-2.71778 -1.666667,-3.28262 0.594553,-1.83179 -3.291956,-1.08505 -4.987816,0.95834 -1.927783,2.32283 -4.216796,1.43266 -3.190856,-1.2409 0.424315,-1.10575 -0.487133,-2.21517 -2.289971,-2.78737 -3.100654,-0.98411 -6.531357,1.97373 -6.531357,5.63112 0,2.07517 -3.475259,2.33956 -4.700186,0.35759 -0.471661,-0.76316 -2.035864,-1.01359 -3.476007,-0.55651 -1.440142,0.45709 -3.510101,0.091 -4.599909,-0.81341 -1.577301,-1.30904 -2.669813,-1.27608 -5.356151,0.1616 -2.4602,1.31666 -3.983455,1.42203 -5.621214,0.38883 -1.654626,-1.04384 -3.014253,-0.91426 -5.160352,0.49179 -1.602601,1.04996 -4.602601,1.71543 -6.6666671,1.47882 -3.3554218,-0.38466 -3.7160198,-0.89641 -3.4050921,-4.83247 0.3610855,-4.57101 3.4773033,-10.45767 6.9672432,-13.16139 3.088115,-2.39242 9.519548,-3.29021 11.542549,-1.61127 3.029791,2.5145 2.059725,3.47794 -3.501852,3.47794 -2.921034,0 -6.260596,0.78812 -7.421249,1.75138 C 11.965376,503.0219 8,509.62327 8,511.2671 c 0,2.18343 7.01827,0.18835 11.979178,-3.40532 l 5.712613,-4.13819 -0.871298,3.47153 c -1.014101,4.0405 0.488011,4.4229 5.212835,1.32708 2.995747,-1.96289 3.342069,-1.96404 4.090535,-0.0136 1.122423,2.92498 8.885145,2.28207 10.166505,-0.84199 0.712946,-1.73823 2.498268,-2.33334 7,-2.33334 3.323631,0 6.042965,0.61144 6.042965,1.35874 0,0.78428 1.412223,1.00429 3.34025,0.52039 2.891028,-0.72561 3.608293,-0.19683 5.333333,3.93177 C 67.103112,513.76778 68,516.2336 68,516.62382 c 0,1.40391 -2.039031,0.56404 -4,-1.64757 z m 16.020417,-0.0967 c 0.03627,-3.93154 2.090505,-5.6309 6.408995,-5.30184 2.818303,0.21474 4.115375,0.95816 3.897357,2.23376 -0.740421,4.33215 3.235193,2.5657 10.236361,-4.54823 4.09028,-4.15615 7.43687,-6.88153 7.43687,-6.0564 0,0.82514 -1.94182,4.94096 -4.31516,9.14628 -2.84702,5.04465 -4.46607,6.86239 -4.75873,5.34272 -0.389742,-2.02376 -0.796513,-2.08285 -3.351511,-0.48689 -1.599363,0.99904 -5.757932,1.83151 -9.241266,1.84994 -5.033,0.0266 -6.329141,-0.42082 -6.312916,-2.17934 z m 4.64625,-1.5462 c 0.453225,-0.73333 0.188635,-1.33333 -0.587978,-1.33333 -0.776612,0 -1.412022,0.6 -1.412022,1.33333 0,0.73334 0.264589,1.33334 0.587977,1.33334 0.323388,0 0.958798,-0.6 1.412023,-1.33334 z m 122.488033,2.37701 c -0.32528,-0.52598 -2.37894,-0.59882 -4.56368,-0.16188 -3.27144,0.65429 -3.82756,0.4174 -3.15213,-1.34274 0.45106,-1.17545 -0.13816,-3.09547 -1.30939,-4.26669 -1.17122,-1.17123 -2.12031,-2.53665 -2.10908,-3.03427 0.094,-4.16543 10.50673,-6.95267 13.31826,-3.56498 0.93939,1.1319 1.24035,2.4935 0.66878,3.02578 -0.57156,0.53227 -1.30706,0.21777 -1.63444,-0.69889 -0.72515,-2.03042 -6.54197,-2.21734 -7.75828,-0.24932 -1.07734,1.74317 3.27343,6.80914 4.9552,5.76976 0.66744,-0.41251 1.93726,-0.15145 2.8218,0.58012 0.88454,0.73158 3.40826,1.53323 5.60826,1.78146 2.2,0.24822 3.84913,1.04367 3.66473,1.76767 -0.38265,1.5024 -9.6106,1.84832 -10.51003,0.39398 z M 228,515.97458 c 0,-0.79733 -1.43182,-0.99938 -3.46531,-0.489 -2.88772,0.72477 -3.38579,0.45679 -2.98819,-1.60777 0.26241,-1.36264 1.94363,-3.20865 3.73602,-4.10226 1.7924,-0.8936 4.29605,-2.99971 5.56367,-4.68023 3.51484,-4.65974 4.53977,-1.85049 1.09161,2.99201 -2.75584,3.87023 -2.82437,4.35025 -0.78408,5.49205 1.22963,0.68814 1.88767,1.81429 1.4623,2.50255 C 231.57629,517.76425 228,517.68108 228,515.97458 Z M 69.572863,514.2886 c -0.794803,-0.95768 -0.940105,-2.4884 -0.329926,-3.47569 0.763851,-1.23594 1.363523,-1.32237 2.002419,-0.28861 0.501612,0.81162 2.376612,1.47568 4.166667,1.47568 3.659313,0 4.361787,1.95651 1.145594,3.19068 -3.257715,1.2501 -5.431619,0.96935 -6.984754,-0.90206 z M 111,508.38269 c -4.66476,-0.88347 -3.52885,-3.26932 1.33333,-2.80052 2.38334,0.2298 4.22834,1.00281 4.1,1.71781 -0.28392,1.58184 -1.50898,1.82596 -5.43333,1.08271 z m 265.33333,-73.26575 c -0.91666,-0.36988 -1.66666,-2.4035 -1.66666,-4.51914 0,-3.0112 1.29182,-4.79695 5.948,-8.22223 3.2714,-2.40657 5.9714,-4.83268 6,-5.39134 0.0286,-0.55867 -2.32503,-0.63566 -5.23028,-0.17109 -2.90524,0.46457 -6.35524,0.43221 -7.66666,-0.0719 -1.99418,-0.76658 -1.07516,-2.11149 5.6156,-8.21795 l 8,-7.30137 -5.83307,2.83437 c -3.20819,1.5589 -6.82633,2.57462 -8.04032,2.25716 -1.21399,-0.31747 -5.37702,-0.17057 -9.25118,0.32644 -5.80774,0.74506 -7.3241,0.50366 -8.64033,-1.37552 -0.87801,-1.25354 -2.7901,-2.50696 -4.24908,-2.78539 -3.87676,-0.73981 -4.13109,-5.69638 -0.38174,-7.4397 3.29912,-1.53398 2.66759,-2.02369 -4.699,-3.64375 -4.13487,-0.90935 -4.22775,-4.26291 -0.10366,-3.74307 17.5149,2.20778 19.79277,4.00649 10.53172,8.31635 l -5.33334,2.482 7.33334,0.21319 c 4.03333,0.11726 6.58333,0.51583 5.66666,0.88571 -0.91666,0.36989 -1.66666,1.23597 -1.66666,1.92464 0,2.07591 17.6255,0.50793 22.42284,-1.99475 2.43256,-1.26902 5.43256,-2.09156 6.66667,-1.82787 1.76878,0.37795 1.11471,1.6066 -3.08951,5.80348 -2.93334,2.92822 -7.13334,6.66673 -9.33334,8.30782 l -4,2.98379 8,-0.81596 c 4.4,-0.44878 9.12099,-1.12977 10.49109,-1.51333 4.08419,-1.14335 1.85512,2.4977 -3.24735,5.30433 -5.13844,2.82641 -13.24374,10.16922 -13.24374,11.99786 0,0.65813 1.2,1.51041 2.66667,1.89395 1.46667,0.38354 2.66667,1.52737 2.66667,2.54184 0,1.81513 -3.0647,2.28038 -6.33334,0.96145 z M 368.35871,399.076 c 1.29729,-0.33806 3.09729,-0.31583 4,0.0494 0.90271,0.36523 -0.15871,0.64183 -2.35871,0.61465 -2.2,-0.0272 -2.93858,-0.32599 -1.64129,-0.66405 z m -75.02538,-2.40935 c 0,-2.42538 -0.59996,-2.48059 -3.98481,-0.36672 -3.59898,2.2476 -6.1939,-0.22898 -4.18093,-3.99025 1.56597,-2.92604 6.4067,-4.74386 7.57946,-2.84629 0.41234,0.66718 2.16364,0.85818 3.89178,0.42444 4.46596,-1.12088 6.95777,3.52394 3.54661,6.611 -3.004,2.71859 -6.85211,2.81283 -6.85211,0.16782 z m 5.33334,-2.66667 c 0,-1.09999 -0.6,-1.99999 -1.33334,-1.99999 -0.73333,0 -1.33333,0.9 -1.33333,1.99999 0,1.1 0.6,2 1.33333,2 0.73334,0 1.33334,-0.9 1.33334,-2 z m 5.84539,2.74456 c -1.31168,-3.41819 0.10922,-6.73416 3.06695,-7.15735 1.5868,-0.22704 3.8445,-1.87704 5.01711,-3.66667 2.20112,-3.35932 4.73721,-4.33651 4.73721,-1.8253 0,0.78572 -0.9,2.32857 -2,3.42857 -2.25132,2.25133 -2.70786,7.14286 -0.66666,7.14286 0.73333,0 1.33333,0.9 1.33333,2 0,2.33018 -2.82064,2.64602 -4.91618,0.55049 -1.04379,-1.04379 -1.70025,-1.04379 -2.34535,0 -1.25873,2.03667 -3.3534,1.80244 -4.22641,-0.4726 z m 4.82127,-3.41122 c 0,-0.73333 -0.6,-1.33333 -1.33333,-1.33333 -0.73333,0 -1.33333,0.6 -1.33333,1.33333 0,0.73333 0.6,1.33333 1.33333,1.33333 0.73333,0 1.33333,-0.6 1.33333,-1.33333 z m -141.71836,0 c 0.44979,-1.83333 1.20313,-4.79424 1.6741,-6.57979 1.04761,-3.97167 7.18795,-6.4574 10.06108,-4.07293 1.3603,1.12896 1.55701,2.29101 0.66874,3.95075 -1.54395,2.88491 -0.53571,4.0353 3.53667,4.0353 2.16141,0 3.11111,-0.76894 3.11111,-2.51895 0,-3.89395 4.29622,-8.462 6.98725,-7.42935 1.87555,0.71971 2.02833,1.40776 0.83227,3.74825 -0.80573,1.5767 -2.74474,3.91292 -4.30891,5.1916 l -2.84395,2.32488 3,0.83063 c 1.65,0.45684 3,1.36065 3,2.00845 0,1.62403 -6.3163,1.49009 -7.33333,-0.15551 -1.22201,-1.97726 -5.43944,-1.61534 -7.29995,0.62645 -1.01283,1.22039 -3.56504,1.84919 -6.76467,1.66667 -4.76101,-0.2716 -5.07816,-0.53781 -4.32041,-3.62645 z m 7.71836,-1.33333 c 2.363,-1.01542 2.24913,-1.15658 -1,-1.23962 -2.01666,-0.0516 -3.66666,0.50628 -3.66666,1.23962 0,1.56495 1.02482,1.56495 4.66666,0 z m 16.34268,-7.43511 C 190.36377,383.25264 188,385.26713 188,387.69772 c 0,2.0353 0.17538,2.03165 2.25397,-0.0469 1.23968,-1.23968 1.8796,-2.62834 1.42204,-3.0859 z m -13.00934,1.27967 c 0,-0.28118 -1.5,-0.51123 -3.33334,-0.51123 -1.83333,0 -3.33333,0.5168 -3.33333,1.14844 0,0.63164 1.5,0.86169 3.33333,0.51123 1.83334,-0.35047 3.33334,-0.86726 3.33334,-1.14844 z m 16.88889,10.59988 c -3.75663,-3.75662 3.43007,-11.12805 8.30538,-8.51887 2.96869,1.5888 2.55397,4.90273 -0.96876,7.74109 -2.24472,1.80863 -5.91651,2.19789 -7.33662,0.77778 z m 6.80555,-4.19444 c 0.29482,-0.88445 -0.69834,-1.58334 -2.25,-1.58334 -2.76977,0 -3.59991,1.40009 -1.86111,3.13889 1.2353,1.2353 3.46163,0.3929 4.11111,-1.55555 z m 6.52778,4.19444 c -1.95396,-1.95396 -0.70104,-5.83939 2.57524,-7.98609 2.75322,-1.80398 3.97343,-1.95172 5.94587,-0.71991 3.08722,1.92801 10.59,0.57828 10.59,-1.90511 0,-1.00833 0.64294,-1.83333 1.42875,-1.83333 0.78582,0 1.3194,1.35 1.18575,3 -0.41412,5.11236 -0.0185,6.33333 2.05217,6.33333 1.1,0 2,0.56459 2,1.25464 0,2.10582 -2.68359,3.05784 -4.46112,1.58261 -0.92271,-0.76577 -2.99962,-1.04661 -4.61537,-0.62408 -1.61574,0.42252 -3.80875,0.0453 -4.87334,-0.8382 -1.52985,-1.26966 -2.56884,-1.16289 -4.95624,0.5093 -3.23187,2.2637 -5.44053,2.65802 -6.87171,1.22684 z m 5.00206,-2.5871 C 215.05093,393.41221 216,392.16821 216,391.0929 c 0,-2.73582 -4.52926,-1.61677 -5.08245,1.25573 -0.48946,2.54152 -0.15729,2.71006 2.9734,1.5087 z m 11.44238,-1.85734 c 0,-0.73334 -0.6,-1.33334 -1.33333,-1.33334 -0.73333,0 -1.33333,0.6 -1.33333,1.33334 0,0.73333 0.6,1.33333 1.33333,1.33333 0.73333,0 1.33333,-0.6 1.33333,-1.33333 z m 32.90046,4.45601 c -1.16752,-1.16752 1.63981,-4.45601 3.80402,-4.45601 1.34734,0 1.38351,-0.70672 0.17008,-3.32294 -2.09402,-4.51477 -3.32015,-4.19849 -5.68737,1.46705 -2.33073,5.57822 -3.84296,5.21027 -2.5617,-0.62331 0.96903,-4.41194 2.532,-6.0651 7.04118,-7.44747 2.37195,-0.72716 3,-0.39597 3,1.58198 0,7.8839 8.89435,9.17571 11.97466,1.73919 2.38881,-5.7671 4.40488,-7.0584 7.46807,-4.78334 3.13031,2.32492 1.53068,5.7964 -3.89905,8.46159 -3.86727,1.89825 -4.72318,4.26058 -1.54368,4.26058 1.1,0 2,0.9 2,2 0,2.97063 -4.13899,2.42318 -4.94366,-0.65388 -0.55158,-2.10925 -1.41524,-2.47887 -4.2085,-1.80107 -1.93298,0.46904 -4.69801,1.66328 -6.14451,2.65388 -2.87364,1.96791 -5.10655,2.28673 -6.46954,0.92375 z m 22.92472,-10.24536 c 0.81676,-0.98414 1.09543,-2.17893 0.61927,-2.6551 -1.00066,-1.00066 -4.44445,1.53649 -4.44445,3.27437 0,1.75544 2.14216,1.40864 3.82518,-0.61927 z m -126.3519,0.7175 c -0.78659,-1.46976 -0.81277,-3.15507 -0.0673,-4.33333 1.0189,-1.61048 1.22325,-1.55853 1.2403,0.31533 0.0112,1.23391 1.22042,2.62434 2.68709,3.08985 3.4268,1.08762 3.45841,3.33333 0.0469,3.33333 -1.44087,0 -3.199,-1.08233 -3.90697,-2.40518 z m 72.537,-44.24485 c -2.17746,-3.52321 0.77565,-3.90606 56.42437,-7.31507 C 317.33274,333.31206 324,333.41811 324,336.00814 c 0,1.52448 -7.51593,2.39968 -28.66667,3.33811 -21.02411,0.93282 -52.39773,3.04405 -60.8562,4.09522 -3.98759,0.49555 -6.52537,0.22582 -7.13352,-0.75818 z m -14.01028,-11.41618 c 0,-1.13642 1.00038,-3.98642 2.22306,-6.33334 1.22268,-2.34691 2.57287,-5.94776 3.00041,-8.00187 0.42755,-2.05412 1.37717,-3.55412 2.11028,-3.33333 0.73311,0.22078 1.10978,1.00142 0.83704,1.73475 -2.02001,5.43151 -1.84674,6.22999 1.25508,5.78379 2.02107,-0.29072 3.4003,-1.59739 3.88958,-3.68494 0.41696,-1.77896 1.54982,-3.49838 2.51747,-3.82093 1.37867,-0.45956 1.44284,0.005 0.29656,2.14682 -0.80455,1.50331 -1.46281,3.37273 -1.46281,4.15427 0,1.91619 4.41329,1.8077 6.37778,-0.15679 2.2243,-2.2243 3.69426,-0.25221 1.64896,2.21223 -1.8412,2.21851 -0.039,2.84445 2.08228,0.7232 0.71995,-0.71996 3.77613,-1.61899 6.7915,-1.99786 4.10188,-0.51537 5.67555,-0.18574 6.24914,1.30902 1.21173,3.15772 4.71688,2.32718 5.63615,-1.33548 0.85325,-3.39962 3.69881,-4.45193 5.25029,-1.94159 0.47308,0.76546 0.13502,2.26546 -0.75124,3.33333 -2.42501,2.92196 1.08242,2.52063 6.42183,-0.7348 3.76676,-2.29658 4.48097,-2.386 5.14917,-0.6447 1.45077,3.78064 -1.76891,5.31409 -11.98088,5.70622 -8.44392,0.32424 -10.22536,0.0143 -11.33721,-1.97247 -1.25097,-2.23535 -1.45078,-2.23801 -3.86677,-0.0516 -2.77989,2.51577 -4.98606,3.10006 -3.671,0.97225 1.31741,-2.13161 -2.83683,-1.53815 -4.66667,0.66667 -2.41914,2.91489 -5.69593,2.57626 -4.72333,-0.48812 0.65847,-2.07466 0.23028,-2.38117 -2.57682,-1.84456 -2.13446,0.40803 -3.36651,1.5338 -3.36651,3.07609 0,1.3379 -0.6,2.80336 -1.33334,3.25659 C 224.57361,330.46952 224,329.31625 224,327.31928 c 0,-2.87192 -0.5417,-3.42783 -3,-3.07869 -2.06577,0.29338 -3.39728,1.77551 -4.27573,4.7594 -1.32328,4.49485 -3.39094,5.87725 -3.39094,2.26712 z m 74.00607,-0.59064 c -0.46467,-0.75186 -0.45872,-2.58363 0.0132,-4.07061 0.75673,-2.38426 0.32784,-2.66789 -3.63114,-2.40127 -2.46907,0.16629 -5.23489,-0.15851 -6.14627,-0.72177 -3.30605,-2.04325 1.31955,-15.48283 5.32883,-15.48283 0.63659,0 0.18718,1.48077 -0.99867,3.29061 -1.18584,1.80983 -1.94968,3.81941 -1.6974,4.46574 0.25228,0.64632 4.57661,0.33347 9.60962,-0.69523 5.03302,-1.0287 9.4431,-1.5782 9.80018,-1.22112 1.55618,1.55618 -1.46136,3.49333 -5.44163,3.49333 -2.38323,0 -5.49782,0.93107 -6.92131,2.06904 -2.51532,2.0108 -2.50373,2.0458 0.41183,1.24348 2.74946,-0.75661 3,-0.37922 3,4.51894 0,5.30557 -1.70703,8.1333 -3.32727,5.51169 z m -4.67273,-10.12093 c 0,-1.16111 -0.7125,-1.87361 -1.58334,-1.58333 -2.47229,0.8241 -2.88234,3.69444 -0.52777,3.69444 1.16111,0 2.11111,-0.95 2.11111,-2.11111 z m -4.50814,-57.63238 c -1.31762,-2.13194 1.44679,-3.22174 5.76597,-2.27309 4.43114,0.97324 13.8958,-3.18799 15.24439,-6.70233 1.38472,-3.60853 0.94074,-6.86358 -1.17576,-8.62012 -2.49574,-2.07128 -13.61473,-1.9682 -16.16685,0.14988 -1.0399,0.86304 -2.32528,1.1346 -2.8564,0.60348 -0.53113,-0.53113 0.19805,-1.81663 1.62039,-2.85667 3.19971,-2.33968 18.21433,-2.55305 20.4764,-0.29099 4.04075,4.04076 0.17126,15.46708 -6.22477,18.38131 -4.93654,2.24924 -15.64906,3.28209 -16.68337,1.60853 z M 348,261.46582 c 0,-0.66046 -3.45,-1.14936 -7.66667,-1.08645 -4.21666,0.0629 -8.81509,-0.39868 -10.21872,-1.02575 -1.95195,-0.87203 -2.29542,-0.72488 -1.46066,0.6258 0.78557,1.27107 0.58244,1.45137 -0.72487,0.64341 -3.08058,-1.90391 -8.36546,-2.06903 -13.60949,-0.42523 -8.35483,2.61892 -14.68644,-2.30695 -9.55769,-7.4357 2.96953,-2.96953 7.2381,-2.69806 7.2381,0.46031 0,1.40556 -0.75,2.85819 -1.66667,3.22807 -0.91666,0.36989 -0.38086,0.71989 1.19068,0.77778 1.57155,0.0579 3.20272,-0.79474 3.62483,-1.89474 0.84631,-2.20545 7.51783,-2.79706 7.51783,-0.66666 0,0.73333 1.35,1.31159 3,1.28501 2.19312,-0.0353 3.71722,-1.55942 5.66666,-5.66666 1.82287,-3.84057 3.51047,-5.61835 5.33334,-5.61835 4.45159,0 4.05795,5.15322 -0.69944,9.1563 -4.15439,3.49568 -4.15806,3.51036 -0.87885,3.51036 1.81114,0 3.63835,-0.9 4.06046,-2 0.4221,-1.1 1.6863,-2 2.80931,-2 1.12302,0 2.04185,0.9 2.04185,2 0,2.3918 4.49281,2.6191 10.48439,0.53042 4.9227,-1.71606 8.45177,-0.78413 7.4009,1.95439 -0.91887,2.39454 -6.16668,3.88394 -7.28861,2.06861 -0.50971,-0.82472 -1.49542,-0.54702 -2.5443,0.7168 C 350.16406,262.87883 348,263.33931 348,261.46582 Z m -39.33333,-6.79916 c 0.45322,-0.73334 -0.11137,-1.33334 -1.25465,-1.33334 -1.14328,0 -2.07869,0.6 -2.07869,1.33334 0,0.73333 0.56459,1.33333 1.25465,1.33333 0.69005,0 1.62546,-0.6 2.07869,-1.33333 z m 28.43121,-6.70635 C 336.35043,245.71793 332,250.06836 332,253.05819 c 0,1.84976 0.45074,1.75032 2.82407,-0.62301 1.55324,-1.55325 2.57646,-3.56694 2.27381,-4.47487 z m 152.8686,13.31878 c -0.47166,-0.76317 -1.95658,-1.03876 -3.29981,-0.61243 -1.34324,0.42632 -2.8342,0.14094 -3.31326,-0.63418 -0.47905,-0.77513 -1.51716,-1.00997 -2.30691,-0.52188 -2.63167,1.62646 -29.17238,2.04477 -31.04658,0.48933 -1.21904,-1.01172 -2.02895,-1.03166 -2.62657,-0.0647 -1.11744,1.80805 -6.04002,1.82258 -6.04002,0.0178 0,-0.9083 -0.9698,-0.86123 -2.83623,0.13766 -2.19142,1.17281 -3.0791,1.12493 -3.90451,-0.21062 -0.81852,-1.32438 -1.82074,-1.38567 -4.28656,-0.26217 -1.91643,0.87318 -3.97763,0.99511 -5.09548,0.30142 -1.54067,-0.95608 -1.35694,-1.68643 1.02487,-4.07387 2.82141,-2.82807 3.03496,-2.84589 7.68143,-0.641 2.62864,1.24737 5.3483,1.91632 6.04368,1.48655 0.69538,-0.42977 2.47376,-0.0261 3.95195,0.89705 2.96546,1.85196 4.59032,0.84255 5.95754,-3.70097 0.80334,-2.66968 0.53405,-2.7385 -6.81375,-1.74138 -4.20758,0.57098 -7.91652,0.77177 -8.24209,0.44619 -1.38271,-1.38271 1.76904,-2.47219 10.02817,-3.4665 4.84312,-0.58305 9.63487,-1.74827 10.64833,-2.58937 1.34304,-1.11462 1.84265,-1.12348 1.84265,-0.0327 0,2.24236 7.62744,1.80218 11.38025,-0.65676 3.81956,-2.50267 4.42835,-0.62672 0.8481,2.61337 -1.34108,1.21365 -4.64108,2.20665 -7.33333,2.20665 -2.69226,0 -4.89502,0.46665 -4.89502,1.03701 0,1.55626 5.47283,5.93461 6.33741,5.07003 0.41281,-0.41282 1.40577,-0.23926 2.20658,0.38567 0.80081,0.62493 3.72574,0.85178 6.49985,0.50411 3.88147,-0.48646 5.50254,-1.51916 7.03424,-4.48115 1.79301,-3.4673 1.77922,-3.84901 -0.13907,-3.84901 -1.17122,0 -2.95913,-0.82965 -3.97315,-1.84366 -1.56933,-1.56933 -1.0287,-1.85491 3.63331,-1.91925 3.01234,-0.0416 5.97566,-0.86193 6.58516,-1.82301 0.91217,-1.43834 1.11178,-1.4387 1.12859,-0.002 0.0112,0.95994 0.62042,1.37453 1.35375,0.92131 0.73333,-0.45323 1.96247,-0.43522 2.73141,0.04 1.9532,1.20715 -1.05833,4.62665 -4.07466,4.62665 -2.39725,0 -7.4667,6.30116 -6.13823,7.62963 0.40237,0.40238 2.23225,-0.25167 4.06639,-1.45345 3.09928,-2.03072 3.27467,-2.02834 2.48338,0.0337 -0.69989,1.82391 -0.27751,2.05256 2.37348,1.28489 7.00446,-2.02834 8.63366,-2.36932 10.55823,-2.2098 1.1,0.0912 3.65,0.16351 5.66667,0.16074 2.73828,-0.004 3.66666,0.64812 3.66666,2.57463 0,2.17507 -0.67962,2.46223 -4.33333,1.83094 -2.38333,-0.41179 -4.9951,-0.9441 -5.80393,-1.18291 -0.80883,-0.23881 -2.45296,0.71311 -3.65362,2.11538 -2.43915,2.84872 -4.29455,3.23538 -5.57597,1.16201 z m -34.00979,-5.19818 c 0.92027,-1.71953 0.93598,-2.86255 0.0469,-3.41202 C 454.00847,251.43582 452,253.1464 452,256.07868 c 0,3.32852 2.17586,3.32975 3.95669,0.002 z m -82.17558,3.16279 c -0.44102,-1.14929 -0.12219,-2.76929 0.70851,-3.6 1.12495,-1.12495 1.51038,-1.12308 1.51038,0.007 0,0.83473 1.35,1.44481 3,1.35575 7.6291,-0.4118 11.66667,0.39337 11.66667,2.32656 0,2.30449 -0.28113,2.33553 -7.00711,0.77367 -2.91666,-0.67728 -5.31531,-0.664 -5.74535,0.0318 -1.15072,1.86191 -3.24956,1.40736 -4.1331,-0.8951 z m 39.52244,-0.33305 c -5.58599,-4.52326 0.73259,-10.4835 9.91013,-9.3481 1.94474,0.24059 3.4821,1.03744 3.41636,1.77077 -0.0657,0.73334 -1.13439,1.19708 -2.37478,1.03055 -4.18971,-0.56249 -9.58859,1.16911 -9.58859,3.07539 0,1.21563 1.43277,1.89406 4,1.89406 4.27426,0 5.37326,1.85439 1.89095,3.19068 -3.16251,1.21357 -3.99034,1.02946 -7.25407,-1.61335 z M 286.66667,258.0762 c 0,-1.05808 1.3084,-4.20808 2.90756,-7 3.66675,-6.40166 3.61137,-6.33505 4.51541,-5.43101 0.7803,0.78029 -5.63,14.3548 -6.77877,14.3548 -0.35431,0 -0.6442,-0.8657 -0.6442,-1.92379 z m 31.63095,-28.22303 c -0.47186,-0.47187 0.0181,-2.55207 1.08889,-4.62268 2.64074,-5.10662 2.44965,-6.44567 -0.79862,-5.59623 -1.95347,0.51084 -2.93896,-0.0221 -3.41629,-1.84741 -0.54573,-2.08685 -1.58149,-2.45904 -5.55298,-1.99539 -2.68517,0.31348 -6.63381,1.83864 -8.77477,3.38924 -2.40335,1.74066 -4.09122,2.25932 -4.41168,1.35566 -0.34225,-0.96511 -3.91032,-1.24599 -10.4756,-0.82466 -10.97768,0.70451 -12.34232,-0.47001 -7.49758,-6.45301 3.01156,-3.71912 7.5671,-2.71849 6.48377,1.42417 -0.87481,3.34529 2.3797,3.58623 4.28377,0.31713 0.75424,-1.29494 1.37709,-1.59163 1.39959,-0.66666 0.0223,0.91666 1.24055,1.66666 2.70721,1.66666 1.46667,0 2.68575,-0.75 2.70907,-1.66666 0.0259,-1.01786 0.73193,-0.75834 1.81366,0.66666 2.17238,2.86176 3.47727,2.98685 3.47727,0.33334 0,-1.476 1.54344,-2 5.89095,-2 3.24003,0 6.87582,-0.37793 8.07954,-0.83985 1.51103,-0.57983 2.41593,0.0295 2.9229,1.96815 0.58809,2.24885 1.21988,2.54811 3.17287,1.5029 3.67025,-1.96425 4.27656,0.43241 1.7576,6.94757 -2.54673,6.58701 -3.64497,8.15566 -4.85957,6.94107 z m -37.63095,-13.85318 c 0.45322,-0.73333 0.18863,-1.33333 -0.58798,-1.33333 -0.77661,0 -1.41202,0.6 -1.41202,1.33333 0,0.73334 0.26459,1.33334 0.58797,1.33334 0.32339,0 0.9588,-0.6 1.41203,-1.33334 z m -24.91597,5.97689 c -0.50378,-0.50596 1.39348,-4.30775 4.21613,-8.44841 2.82266,-4.14066 6.14999,-10.07848 7.39408,-13.19514 1.24408,-3.11667 2.79682,-5.66667 3.45053,-5.66667 0.65371,0 1.18856,0.36286 1.18856,0.80636 0,1.14306 -6.35495,13.6797 -9.62064,18.979 l -2.74357,4.45203 7.68482,-0.96016 c 6.01895,-0.75202 7.55993,-0.58553 7.10874,0.76804 -0.31683,0.9505 -2.04305,1.84463 -3.83604,1.98694 -1.79299,0.14232 -5.65998,0.69508 -8.59331,1.22835 -2.93333,0.53327 -5.74552,0.55562 -6.2493,0.0497 z m 82.91597,-1.27775 c 0,-1.40695 -0.92801,-1.58018 -3.89964,-0.72792 -4.47999,1.28484 -6.0717,0.4041 -3.93108,-2.1752 1.10473,-1.33111 0.93293,-2.61683 -0.67823,-5.07577 C 328.97097,210.90904 328,209.06802 328,208.62909 c 0,-1.54458 8.46808,0.0582 9.00873,1.70514 0.35907,1.0938 -0.232,1.36848 -1.71785,0.79831 -1.8833,-0.72269 -2.09899,-0.32939 -1.27911,2.33242 0.54239,1.76094 1.07848,3.31854 1.1913,3.46135 0.11282,0.14281 2.58828,-0.36333 5.50103,-1.12476 8.57777,-2.24234 11.83246,-2.08557 12.36938,0.59583 0.62226,3.10757 -2.0644,6.31698 -4.5043,5.38071 -2.5105,-0.96337 -2.44319,-3.11143 0.0975,-3.11143 1.1,0 2,-0.6 2,-1.33333 0,-2.53581 -5.46696,-1.32093 -8.72728,1.93939 -2.10129,2.10129 -3.27272,2.61186 -3.27272,1.42641 z m 50.66666,-0.90587 c 0,-1.02662 0.94218,-3.21172 2.09372,-4.85578 1.15154,-1.64406 2.23911,-4.35295 2.41682,-6.01975 0.48584,-4.55678 1.9737,-6.25107 5.48946,-6.25107 1.74678,0 3.54678,-0.6 4,-1.33333 1.10006,-1.77993 -8.07794,-1.74224 -11.42099,0.0469 -1.41845,0.75913 -2.57901,2.59454 -2.57901,4.07869 0,1.48414 -0.6,2.32762 -1.33333,1.8744 -0.73333,-0.45323 -1.33333,-1.97323 -1.33333,-3.37779 0,-3.04641 5.1772,-5.94875 12.89945,-7.23143 4.72792,-0.78531 5.77814,-0.5284 6.97397,1.70605 1.16206,2.17131 0.83862,3.00356 -1.85254,4.76687 -1.79322,1.17496 -3.86483,2.1363 -4.60357,2.1363 -0.73875,0 -2.62562,2.9811 -4.19305,6.62468 -3.02061,7.02161 -6.5576,11.24772 -6.5576,7.83525 z m 32.50155,-0.39205 c -1.54986,-1.08555 -3.13073,-1.66092 -3.51307,-1.27859 -0.38233,0.38234 -3.16115,0.94048 -6.17515,1.24033 -4.17296,0.41514 -5.47999,0.0791 -5.47999,-1.40889 0,-2.52113 -1.88752,-2.49946 -4,0.0459 -2.1493,2.58975 -4.13894,2.58017 -3.14304,-0.0151 0.58271,-1.5185 0.16165,-1.78557 -1.70851,-1.08369 -2.18269,0.81917 -2.26272,0.66208 -0.66404,-1.30353 0.99975,-1.22923 2.33735,-1.91382 2.97244,-1.52132 0.63509,0.39251 2.2171,0.16698 3.51559,-0.50118 2.97109,-1.5288 5.69422,-0.61243 5.69422,1.9162 0,1.42689 0.61343,1.60996 2.33334,0.69639 1.28333,-0.68168 5.13218,-1.04902 8.55299,-0.81632 4.80469,0.32684 6.74753,-0.16019 8.53998,-2.14083 2.78201,-3.07408 4.57369,-3.29499 4.57369,-0.56393 0,1.1 -0.675,1.85 -1.5,1.66667 -0.825,-0.18334 -1.775,0.41666 -2.11111,1.33333 -0.36649,0.99952 0.51401,1.66667 2.19967,1.66667 1.79252,0 3.28326,-1.24272 4.115,-3.43036 1.63708,-4.30585 6.01598,-3.90942 5.85104,0.52971 -0.0772,2.07861 0.47472,2.79096 1.77571,2.29172 1.03829,-0.39842 2.80291,-0.72441 3.9214,-0.72441 1.17994,0 1.7376,-0.77135 1.32847,-1.83752 -0.88089,-2.29556 1.53657,-4.82914 4.6078,-4.82914 3.16652,0 4.38519,2.36947 2.43022,4.72507 -0.88626,1.06787 -1.16445,1.94159 -0.6182,1.94159 0.54626,0 0.30621,0.82776 -0.53343,1.83946 -1.01623,1.22449 -4.64008,1.86876 -10.83928,1.92709 -5.12196,0.0482 -9.8581,0.42473 -10.52475,0.83675 -0.66665,0.41201 -2.72246,0.17487 -4.56846,-0.52698 -2.14848,-0.81685 -3.51081,-0.81279 -3.7855,0.0113 -0.23686,0.71058 -1.69165,0.40306 -3.24703,-0.68638 z M 440,214.66666 c 0,-0.73333 -0.26459,-1.33333 -0.58798,-1.33333 -0.32338,0 -0.9588,0.6 -1.41202,1.33333 -0.45322,0.73333 -0.18864,1.33333 0.58798,1.33333 0.77661,0 1.41202,-0.6 1.41202,-1.33333 z m 13.33333,-1.33333 c 0,-0.73334 -0.63541,-1.33334 -1.41202,-1.33334 -0.77661,0 -1.0412,0.6 -0.58798,1.33334 0.45323,0.73333 1.08864,1.33333 1.41203,1.33333 0.32338,0 0.58797,-0.6 0.58797,-1.33333 z m 4.93776,-4.79726 c -1.31757,-1.76151 -1.78868,-3.20274 -1.04691,-3.20274 1.34922,0 4.71648,5.18772 3.88385,5.9836 -0.24275,0.23204 -1.51937,-1.01935 -2.83694,-2.78086 z m -26.71553,-8.09163 c -1.53418,-1.53418 -0.97099,-3.11111 1.11111,-3.11111 1.1,0 2,0.9 2,2 0,2.08209 -1.57694,2.64529 -3.11111,1.11111 z M 48.266667,155.73333 c -3.325743,-3.32575 -1.842721,-5.137 3.50581,-4.28173 l 5.10581,0.81645 2.89419,-7.93759 c 1.591804,-4.36567 2.89419,-8.28692 2.89419,-8.71389 0,-0.42697 0.695828,-2.46537 1.546284,-4.52978 l 1.546285,-3.75346 0.975818,4 c 0.925435,3.79347 1.025732,3.8451 1.942557,1 C 70.049724,128.07537 72,128.61618 72,133.25464 c 0,5.31264 2.493885,6.49616 5.486638,2.60378 1.412343,-1.83689 2.466652,-2.42372 2.483714,-1.38244 0.01701,1.03813 0.863914,1.48918 1.986948,1.05823 2.497776,-0.95848 3.248468,0.32646 4.210984,7.20787 0.60666,4.33725 0.378661,5.44 -1.02766,4.97042 -1.147837,-0.38326 -1.648995,-2.14371 -1.373469,-4.82465 0.38753,-3.77076 0.06294,-4.22119 -3.041846,-4.22119 -1.911618,0 -3.821031,0.9 -4.24314,2 C 75.369932,143.5651 72,143.12303 72,140.07868 c 0,-4.61953 -2.349824,-4.18565 -3.247552,0.59965 -1.099769,5.86227 -3.374511,6.06804 -3.555899,0.32166 -0.125482,-3.97527 -0.322123,-3.75933 -2.379784,2.61327 -3.640037,11.27323 -10.054095,16.61607 -14.550098,12.12007 z m 48.245389,-26.98878 c -1.208387,-3.14901 0.0024,-6.58707 2.833088,-8.0444 1.711576,-0.88118 2.811876,-3.02491 3.096786,-6.03349 0.24306,-2.56666 0.94245,-5.18606 1.55421,-5.82088 0.61176,-0.63481 0.77473,2.56847 0.36215,7.11841 -0.73789,8.1376 -0.69797,8.26525 2.44579,7.82088 2.26367,-0.31997 3.24129,-1.35277 3.35147,-3.54062 0.21854,-4.3397 2.9,-6.84212 4.5362,-4.23331 0.68606,1.09387 0.92064,3.03886 0.5213,4.32219 -0.50285,1.61596 -0.002,2.33333 1.63043,2.33333 3.43314,0 0.11049,3.02723 -3.80664,3.4682 -1.67026,0.18802 -4.60277,0.73847 -6.51669,1.22322 -2.81066,0.71187 -3.61997,0.34553 -4.20851,-1.90503 -0.40076,-1.53251 -1.38483,-2.78639 -2.18681,-2.78639 -1.961825,0 -1.867645,3.64129 0.11124,4.30091 1.75581,0.58527 0.33325,3.69909 -1.689939,3.69909 -0.71307,0 -1.628404,-0.86495 -2.034075,-1.92211 z m 24.821274,-10.60001 c 0,-2.58899 0.68156,-3.47788 2.66667,-3.47788 1.46667,0 2.66667,0.58117 2.66667,1.29149 0,1.75908 4.28211,0.14608 6.31955,-2.38047 1.95747,-2.42737 2.5111,-2.04475 3.65897,2.52871 0.79744,3.17725 0.53115,3.43153 -3.55829,3.39792 -2.43113,-0.02 -6.07023,0.44841 -8.0869,1.04088 -3.33818,0.98072 -3.66667,0.76565 -3.66667,-2.40065 z m 31.55556,-9.7001 c -1.69039,-1.69039 -0.87855,-3.11111 1.77778,-3.11111 1.46666,0 2.66666,-0.6 2.66666,-1.33333 0,-0.73334 -0.9,-1.33334 -2,-1.33334 -2.93001,0 -2.44079,-2.24038 0.66667,-3.052996 2.11882,-0.554084 2.66667,-1.818687 2.66667,-6.155508 0,-3.001988 0.6,-5.458159 1.33333,-5.458159 0.73333,0 1.33333,1.8 1.33333,3.999999 0,2.2 0.48,4 1.06667,4 2.21452,0 4.26667,-3.334737 4.26667,-6.933333 0,-2.053333 0.47365,-3.733333 1.05256,-3.733333 0.57891,0 1.02891,1.65 1,3.666667 -0.0423,2.952939 0.46651,3.571643 2.6141,3.1785 1.46667,-0.268491 4.57009,-0.46439 6.89649,-0.435331 2.44544,0.03055 4.53344,-0.738369 4.94953,-1.822689 0.40007,-1.042577 1.63035,-1.526077 2.77018,-1.088684 1.27761,0.490266 2.05047,0.04077 2.05047,-1.192552 0,-2.826723 3.44818,-5.305911 7.37972,-5.305911 3.32805,0 6.36909,-3.453319 6.75138,-7.666666 0.0998,-1.1 0.55933,-6.75076 1.02117,-12.557244 0.87165,-10.958907 3.06608,-15.442755 7.55779,-15.442755 1.26321,0 3.06683,0.927888 4.00804,2.061973 2.53314,3.052252 -0.30564,13.712514 -6.03783,22.673364 -5.27769,8.250354 -5.39266,8.597995 -2.84353,8.597995 2.69113,0 5.34075,3.526914 3.50293,4.662749 -0.80107,0.495087 -2.1802,0.38903 -3.06474,-0.235681 -4.95185,-3.497257 -10.91597,1.544424 -10.48417,8.862633 0.35833,6.072906 -2.7377,10.262022 -8.86063,11.988982 -5.80282,1.63667 -7.08355,-1.27938 -2.99231,-6.813079 3.63175,-4.912202 2.5785,-6.406031 -2.43048,-3.447154 -2.79119,1.648794 -4.12878,1.826781 -5.25614,0.699412 -2.22154,-2.221534 -8.78651,0.963973 -7.71912,3.745532 0.43647,1.137439 -0.18384,3.045509 -1.37849,4.240149 -2.00721,2.00722 -2.10401,1.95762 -1.27526,-0.65352 1.29192,-4.0705 -1.22207,-4.91686 -3.64064,-1.22566 -4.14649,6.32835 -7.36292,8.60596 -9.3488,6.62008 z m 37.4811,-7.85338 c 1.84072,-1.289289 2.94854,-3.436039 2.92426,-5.666669 l -0.0391,-3.591061 -3.96091,4.354368 c -5.77413,6.347692 -5.1364,9.254512 1.07574,4.903362 z m 19.4,-35.79017 c 3.25138,-6.26525 3.77184,-14.800892 0.90249,-14.800892 -2.20995,0 -4.57948,6.259995 -5.70505,15.07204 -0.89712,7.023581 1.07471,6.912253 4.80256,-0.271148 z M 50.278466,92.500684 c -1.727616,-1.727615 -0.979269,-2.977015 2.041246,-3.407953 3.433833,-0.489906 5.040842,-5.092734 1.778054,-5.092734 -2.668299,0 -2.737908,-2.504714 -0.09777,-3.517832 1.234018,-0.473537 2,-2.500127 2,-5.291486 0,-2.488208 0.6,-4.524015 1.333333,-4.524015 0.733334,0 1.333334,2.343828 1.333334,5.208507 0,4.552068 0.336085,5.120619 2.666666,4.511158 1.995948,-0.521952 2.716915,-1.915834 2.866443,-5.54184 0.17163,-4.161958 0.279185,-4.315968 0.763402,-1.093132 0.50769,3.379058 0.951005,3.666278 4.466891,2.89406 2.43429,-0.53466 3.903264,-0.315637 3.903264,0.581973 0,2.443776 3.826879,1.587444 5.312683,-1.188807 1.095098,-2.04621 2.285987,-2.452185 5.378767,-1.833629 3.610154,0.722031 4.162075,0.340159 6.054519,-4.189096 1.853864,-4.436921 2.492033,-4.901594 5.818124,-4.236375 3.056606,0.611321 4.461338,-0.07226 7.725888,-3.759632 3.26082,-3.68316 4.15819,-6.148167 4.91017,-13.487973 0.50608,-4.939642 1.22849,-9.480078 1.60536,-10.089857 1.39939,-2.264257 5.9622,-1.012402 7.34118,2.014129 1.20681,2.648656 0.69634,4.258537 -3.36192,10.602618 -2.63162,4.113889 -4.78477,8.155543 -4.78477,8.981452 0,0.924152 1.92289,1.333361 5,1.064049 3.75005,-0.328208 5,0.06238 5,1.562395 0,3.230091 -10.46243,2.743892 -11.3607,-0.527943 -1.17873,-4.293429 -7.88441,7.054972 -6.97617,11.806162 0.55426,2.899383 -0.01,4.315688 -2.472551,6.209309 -1.754819,1.349247 -3.64058,2.466517 -4.19058,2.482824 -1.814621,0.0538 -1.040276,-6.669372 1.15383,-10.018 l 2.153829,-3.287159 -3.602798,1.869154 c -1.981538,1.028035 -4.501766,3.152611 -5.600504,4.72128 -1.261929,1.801656 -2.860963,2.57814 -4.341528,2.108227 -1.311611,-0.416289 -3.856742,0.446164 -5.779185,1.958358 -3.156633,2.483008 -3.609371,2.52825 -5.580009,0.557613 -2.833152,-2.833152 -6.543487,-0.13785 -5.281932,3.836958 0.872895,2.75025 -0.343935,2.810846 -6.38674,0.318044 -1.769221,-0.729846 -2.516138,0.03967 -3.412142,3.515395 -1.104971,4.286335 -5.071827,6.589659 -7.377688,4.283798 z M 98.372531,74.562227 c 0.360758,-3.126851 0.308085,-3.1471 -1.666667,-0.640724 -2.469258,3.134011 -2.640529,5.165419 -0.372531,4.418501 0.916667,-0.301885 1.834306,-2.001885 2.039198,-3.777777 z M 115.94411,42.235566 c 0.037,-1.609406 -0.73276,-2.281337 -2.27744,-1.988007 -1.79562,0.340981 -2.40842,1.976662 -2.65914,7.097765 l -0.3258,6.654674 2.60325,-4.666667 c 1.43178,-2.566666 2.62839,-5.76066 2.65913,-7.097765 z M 40,58.189798 c 0,-1.117832 0.6,-2.403242 1.333333,-2.856467 C 43.58805,53.93984 42.812113,51.999998 40,51.999998 c -3.038082,0 -3.602187,-2.391366 -0.816286,-3.460417 1.01771,-0.390532 2.210663,-2.511466 2.651007,-4.713188 0.465421,-2.327103 1.388129,-3.640033 2.203856,-3.135886 0.771776,0.476984 1.03839,2.016749 0.592476,3.421701 -0.6786,2.138077 -0.144102,2.554457 3.279097,2.554457 3.785225,0 4.08985,-0.347588 4.08985,-4.666667 0,-2.566666 0.640433,-4.666666 1.423184,-4.666666 0.795578,0 1.065652,1.126482 0.61243,2.554457 -1.296281,4.08422 1.257495,4.339387 6.669886,0.66644 3.630469,-2.463703 5.295161,-2.965183 6.008993,-1.810179 1.246134,2.016288 3.952174,0.442358 3.952174,-2.298726 0,-1.339437 0.744773,-1.778166 2.121643,-1.249811 2.929911,1.124312 10.938509,-2.900982 11.919193,-5.990844 0.443042,-1.395902 1.56051,-2.538003 2.483262,-2.538003 0.922752,0 3.108095,-1.522553 4.856318,-3.383451 2.447712,-2.60547 3.090815,-4.599084 2.796868,-8.670257 C 94.383158,8.2309853 96.879004,0 99.274976,0 c 0.954164,0 2.524014,1.9052343 3.488554,4.233854 1.60239,3.8684989 1.44376,4.7890256 -1.83824,10.667362 -1.975575,3.53843 -3.592034,6.583195 -3.592128,6.766146 -9.5e-5,0.18295 2.698808,0.332637 5.997568,0.332637 6.23884,0 7.92276,1.585354 4.18693,3.941855 -1.51531,0.955832 -2.91071,0.912633 -4.60011,-0.142409 C 101.33128,24.8088 99.71565,24.71979 98.24628,25.542091 96.534514,26.500043 96,26.268648 96,24.56966 c 0,-1.830613 -0.357836,-1.932536 -2,-0.569661 -2.711886,2.250666 -2.513697,3.554648 0.666667,4.386332 5.558243,1.453513 2.409422,8.996942 -5.423643,12.993073 -6.10052,3.112253 -8.47829,2.400923 -7.325657,-2.191531 0.990543,-3.946641 0.135863,-3.921428 -6.584034,0.194229 -7.815685,4.786782 -9.118002,5.263889 -9.689389,3.549729 -0.354309,-1.062927 -2.195048,-0.691328 -5.874907,1.185996 -5.016922,2.559442 -5.20183,2.85404 -2.897317,4.616043 2.138773,1.63528 2.199314,2.054705 0.461613,3.198063 -1.279863,0.842113 -2.16003,0.851236 -2.444444,0.02534 C 54.085073,49.6231 46.639685,50.483138 45.861952,52.999998 44.060153,58.830883 40,62.425485 40,58.189798 Z M 89.820188,38.569892 c 3.645874,-2.867845 4.509563,-5.796695 2.141054,-7.260514 -1.835923,-1.134663 -7.909168,4.749162 -7.938207,7.690621 -0.0302,3.05948 1.505732,2.945525 5.797153,-0.430107 z M 100.43954,11.666666 C 102.37178,6.9641089 101.87651,2.2633865 99.531173,3.0451646 96.862902,3.934588 95.394319,15.999999 97.95433,15.999999 c 0.387579,0 1.505925,-1.95 2.48521,-4.333333 z"/>
</svg>
